Coordinates
version=1
nRows=16
nColumns=40
inDegrees=yes

Units are S.I. units (second, meters, Newtons, ...)
If the header above contains a line with 'inDegrees', this indicates whether rotational values are in degrees (yes) or radians (no).

endheader
time	pelvis_tilt	pelvis_list	pelvis_rotation	pelvis_tx	pelvis_ty	pelvis_tz	hip_flexion_r	hip_adduction_r	hip_rotation_r	knee_angle_r	knee_angle_r_beta	ankle_angle_r	subtalar_angle_r	mtp_angle_r	hip_flexion_l	hip_adduction_l	hip_rotation_l	knee_angle_l	knee_angle_l_beta	ankle_angle_l	subtalar_angle_l	mtp_angle_l	lumbar_extension	lumbar_bending	lumbar_rotation	arm_flex_r	arm_add_r	arm_rot_r	elbow_flex_r	pro_sup_r	wrist_flex_r	wrist_dev_r	arm_flex_l	arm_add_l	arm_rot_l	elbow_flex_l	pro_sup_l	wrist_flex_l	wrist_dev_l
      3.54500000	    -34.36731088	      1.90511591	      5.85743747	     -0.42252080	      0.58736678	     -0.90420252	    100.96692590	    -12.84554511	     10.45074617	    110.39554449	      1.92676573	     44.15044206	      0.00000000	      0.00000000	    100.06028619	    -13.57631804	     -0.11047431	    108.94942436	      1.90152617	     42.42317646	      0.00000000	      0.00000000	    -22.81954933	     -3.62462782	     -6.59257210	     -6.16876078	    -43.96937123	     56.35085321	     81.31883686	     87.85402785	      0.00000000	      0.00000000	    -24.58204467	    -41.64471211	     36.76900143	     84.87897068	     87.87048161	      0.00000000	      0.00000000
      3.55000000	    -34.51481194	      2.05611945	      5.84841146	     -0.42291881	      0.58716822	     -0.90424110	    101.20029491	    -12.78655613	     10.66906758	    110.38321827	      1.92655060	     44.11683240	      0.00000000	      0.00000000	    100.15291057	    -13.53937226	     -0.23533717	    108.90625361	      1.90077270	     42.38113539	      0.00000000	      0.00000000	    -22.72984563	     -3.81343751	     -6.45741061	     -6.65302140	    -43.86865923	     55.72762288	     81.34782056	     87.85458694	      0.00000000	      0.00000000	    -24.31739889	    -41.79988666	     37.09130704	     84.93239975	     87.86748194	      0.00000000	      0.00000000
      3.55500000	    -34.55223072	      2.05075207	      5.81038367	     -0.42320387	      0.58717188	     -0.90407878	    101.25469207	    -12.70190984	     10.67950751	    110.35092036	      1.92598689	     44.06437200	      0.00000000	      0.00000000	    100.21477106	    -13.59214808	     -0.23255551	    108.87748058	      1.90027052	     42.32806118	      0.00000000	      0.00000000	    -22.73538777	     -3.85105277	     -6.57954337	     -6.32594008	    -43.88259906	     56.12687845	     81.29939957	     87.85454705	      0.00000000	      0.00000000	    -24.56259859	    -41.74256683	     36.81199344	     84.94610386	     87.86728053	      0.00000000	      0.00000000
      3.56000000	    -34.58857846	      1.95887680	      5.79619689	     -0.42352070	      0.58713539	     -0.90394187	    101.28394026	    -12.66434917	     10.57886943	    110.32854515	      1.92559637	     44.06337700	      0.00000000	      0.00000000	    100.32068350	    -13.60999195	     -0.12132173	    108.86170310	      1.89999515	     42.33355186	      0.00000000	      0.00000000	    -22.74684577	     -3.79065466	     -6.53191512	     -6.36843817	    -43.88494097	     56.04325437	     81.31015632	     87.87068738	      0.00000000	      0.00000000	    -24.52753054	    -41.77248508	     36.89446590	     84.97819060	     87.86146961	      0.00000000	      0.00000000
      3.56500000	    -34.54182327	      1.92253117	      5.75325507	     -0.42366659	      0.58734123	     -0.90377636	    101.21601266	    -12.58938474	     10.52716133	    110.29061366	      1.92493434	     44.05881216	      0.00000000	      0.00000000	    100.29009330	    -13.66754024	     -0.09251533	    108.83362819	      1.89950515	     42.28676444	      0.00000000	      0.00000000	    -22.86498144	     -3.78368792	     -6.37200739	     -6.60832908	    -43.83126436	     55.69832661	     81.32116207	     87.86109227	      0.00000000	      0.00000000	    -24.32133304	    -41.81967712	     37.10191885	     84.95680147	     87.85705068	      0.00000000	      0.00000000
      3.57000000	    -34.42442468	      1.93671168	      5.77578759	     -0.42377724	      0.58748785	     -0.90381840	    101.09381454	    -12.60648153	     10.55351742	    110.28155413	      1.92477622	     44.17794471	      0.00000000	      0.00000000	    100.18531653	    -13.65389462	     -0.10902990	    108.84275057	      1.89966436	     42.25859646	      0.00000000	      0.00000000	    -23.10544639	     -3.79041268	     -6.26022926	     -7.11348062	    -43.81812942	     54.96736499	     81.53389812	     87.89856087	      0.00000000	      0.00000000	    -24.25657620	    -41.89743383	     37.06621207	     85.08034499	     87.88074853	      0.00000000	      0.00000000
      3.57500000	    -34.58525211	      1.84525203	      5.90826483	     -0.42414216	      0.58742005	     -0.90399530	    101.27585122	    -12.73087782	     10.50112271	    110.27151002	      1.92460092	     44.01158432	      0.00000000	      0.00000000	    100.38997754	    -13.49269126	     -0.05939756	    108.76787807	      1.89835759	     42.25302822	      0.00000000	      0.00000000	    -22.98669974	     -3.67796271	     -6.24307164	     -7.29959827	    -43.72588433	     54.76230369	     81.39859840	     87.86654924	      0.00000000	      0.00000000	    -23.95870886	    -41.94913824	     37.48164972	     84.95038736	     87.85654359	      0.00000000	      0.00000000
      3.58000000	    -34.46847781	      1.70327183	      6.03197465	     -0.42418591	      0.58768802	     -0.90416864	    101.11843292	    -12.89885244	     10.33735909	    110.26645164	      1.92451264	     43.94594546	      0.00000000	      0.00000000	    100.34450846	    -13.35493494	      0.07922833	    108.76537629	      1.89831393	     42.12006537	      0.00000000	      0.00000000	    -23.15334848	     -3.46464889	     -5.38931698	     -9.04980119	    -43.53985976	     52.62231830	     81.52268364	     87.93312938	      0.00000000	      0.00000000	    -22.07087496	    -42.56870531	     39.83975396	     84.77371402	     87.86964824	      0.00000000	      0.00000000
      3.58500000	    -34.46341214	      1.77889440	      5.99549705	     -0.42441932	      0.58781545	     -0.90413655	    101.13505058	    -12.85045928	     10.40468727	    110.22896035	      1.92385829	     43.91851273	      0.00000000	      0.00000000	    100.31077575	    -13.40293667	     -0.01694439	    108.74294697	      1.89792246	     42.10943115	      0.00000000	      0.00000000	    -23.25698761	     -3.55981727	     -5.14303095	     -9.54997963	    -43.44206120	     51.98663846	     81.52384650	     87.96335794	      0.00000000	      0.00000000	    -21.64778223	    -42.74559709	     40.36465957	     84.83430568	     87.86937435	      0.00000000	      0.00000000
      3.59000000	    -34.35686094	      1.82932032	      5.98845536	     -0.42452128	      0.58812150	     -0.90408895	    101.01284408	    -12.81266445	     10.46196019	    110.20013421	      1.92335518	     44.05738878	      0.00000000	      0.00000000	    100.17315677	    -13.41462960	     -0.05749975	    108.70810730	      1.89731440	     42.16239888	      0.00000000	      0.00000000	    -23.45744527	     -3.61234897	     -5.07930660	     -9.57193000	    -43.38553652	     51.94196455	     81.43710757	     87.96475122	      0.00000000	      0.00000000	    -21.33449471	    -42.86594436	     40.78725394	     84.79481029	     87.77772745	      0.00000000	      0.00000000
      3.59500000	    -34.41960082	      1.97630942	      5.97393091	     -0.42490272	      0.58811353	     -0.90407447	    101.15328217	    -12.77952932	     10.62918154	    110.18468233	      1.92308549	     43.95282208	      0.00000000	      0.00000000	    100.17734768	    -13.42639899	     -0.23868791	    108.67408605	      1.89672061	     42.00874875	      0.00000000	      0.00000000	    -23.50706682	     -3.81048891	     -6.87508338	     -6.02913659	    -43.77560265	     56.23522801	     81.13779501	     87.86860197	      0.00000000	      0.00000000	    -24.63256657	    -41.71908401	     36.71675945	     85.01714809	     87.88928080	      0.00000000	      0.00000000
      3.60000000	    -34.36686118	      1.90096909	      5.94062527	     -0.42520186	      0.58829237	     -0.90388794	    101.06957008	    -12.72959409	     10.52284561	    110.12723794	      1.92208290	     44.17856264	      0.00000000	      0.00000000	    100.17381925	    -13.46379220	     -0.14313310	    108.64591677	      1.89622897	     42.10040624	      0.00000000	      0.00000000	    -23.68109655	     -3.75249477	     -6.65407290	     -6.51017027	    -43.69674274	     55.52878688	     81.17362427	     87.78703598	      0.00000000	      0.00000000	    -24.42150754	    -41.81868969	     36.92974322	     85.02885728	     87.80548309	      0.00000000	      0.00000000
      3.60500000	    -34.41091571	      1.86186761	      5.91840374	     -0.42564466	      0.58843955	     -0.90379391	    101.13893134	    -12.68474207	     10.47829586	    110.07687984	      1.92120398	     43.84347781	      0.00000000	      0.00000000	    100.26207384	    -13.47629517	     -0.10492512	    108.58904053	      1.89523629	     41.93161650	      0.00000000	      0.00000000	    -23.74730086	     -3.73246950	     -5.92423373	     -7.88804314	    -43.54614494	     53.81970435	     81.32132791	     87.88835449	      0.00000000	      0.00000000	    -23.03501548	    -42.37345574	     38.70715504	     85.01552250	     87.88404465	      0.00000000	      0.00000000
      3.61000000	    -34.23650252	      1.81273037	      5.96952587	     -0.42575019	      0.58885354	     -0.90378102	    100.92723557	    -12.73918164	     10.40755310	    110.06206926	      1.92094549	     43.90734413	      0.00000000	      0.00000000	    100.11825972	    -13.45308151	     -0.06832861	    108.54172102	      1.89441041	     42.04604270	      0.00000000	      0.00000000	    -24.06263223	     -3.67611853	     -6.97933265	     -5.69155920	    -43.76801056	     56.43797069	     81.12349016	     87.87277159	      0.00000000	      0.00000000	    -24.77727084	    -41.73196088	     36.60682756	     85.11161886	     87.87818885	      0.00000000	      0.00000000
      3.61500000	    -34.22736488	      1.67877334	      6.06475135	     -0.42613473	      0.58898987	     -0.90383308	    100.90271643	    -12.80624927	     10.30575142	    110.02129047	      1.92023377	     43.82087814	      0.00000000	      0.00000000	    100.18663509	    -13.33133972	      0.07161455	    108.50448563	      1.89376053	     41.93806323	      0.00000000	      0.00000000	    -24.17251473	     -3.50752856	     -6.24928120	     -7.25868748	    -43.61955756	     54.48504647	     81.32136906	     87.86724726	      0.00000000	      0.00000000	    -23.29779590	    -42.30018383	     38.51157835	     85.04290598	     87.86060617	      0.00000000	      0.00000000
      3.62000000	    -34.22531456	      1.74360916	      6.07955260	     -0.42649856	      0.58912678	     -0.90382668	    100.93752504	    -12.82765594	     10.36018522	    110.01427194	      1.92011127	     43.84881131	      0.00000000	      0.00000000	    100.16932355	    -13.32670455	     -0.03364820	    108.44415604	      1.89270758	     41.92282990	      0.00000000	      0.00000000	    -24.33729293	     -3.58391306	     -7.02953625	     -5.71334419	    -43.78522431	     56.38097536	     81.14127143	     87.87733632	      0.00000000	      0.00000000	    -24.71674408	    -41.78720346	     36.68774525	     85.18514905	     87.87875437	      0.00000000	      0.00000000
